<svg id="Layer_3" data-name="Layer 3" xmlns="http://www.w3.org/2000/svg" width="400" height="400"
    viewBox="15 65 150 150">
    <defs>
        <style>
            .cls-2{fill:#e3b100;}
        </style>
    </defs>
    <path class="cls-2"
        d="M16.13,173.38c0-16.08-.53-32.18.13-48.24.83-19.92,9.43-36.25,25.67-48.08C52.51,69.36,64.65,65.39,77.5,63.2c16.16-2.75,32.44-1.81,48.69-2,2.57,0,3.8,1.11,3.77,3.81-.07,8.76,0,17.52,0,26.27,0,3-.87,3.73-4.4,3.74-9,0-18.08-.06-27.11.08a48.91,48.91,0,0,0-24.24,6.65c-11.7,6.84-17.78,17.17-18,30.74-.17,10.18-.07,20.37-.07,30.55q0,29.42,0,58.82c0,3.56-.59,4.21-4.12,4.22q-16.12,0-32.26,0c-3.62,0-3.84-.85-3.84-4.51C15.91,204.71,16,173.38,16.13,173.38Z"
    />
    <path class="cls-2"
        d="M125.92,160.36H88.24c-4.13,0-4.54-.46-4.53-4.57,0-8.19,0-16.37,0-24.56,0-3.83.83-4.6,4.74-4.6H163.8c3.37,0,3.87.47,3.87,4,0,8.76-.07,17.52,0,26.27,0,2.65-1,3.5-3.55,3.48C151.42,160.31,138.67,160.36,125.92,160.36Z"
    />
</svg>