<?xml version="1.0" standalone="yes"?>
<svg width="208" height="227">
<path style="fill:#000000; stroke:none;" d="M0 0L0 82L1 82C2.08922 29.5089 61.4995 2.07314 107 2L143 2C147.339 2.00027 153.396 1.10603 155.397 6.05864C158.781 14.4379 156.019 28.9866 156 38C155.993 41.552 156.37 45.738 152.852 47.821C145.973 51.8938 130.855 49 123 49C97.7697 49 70.8739 54.3558 59.3133 80C53.3827 93.1554 55 108.944 55 123L55 191C55 202.588 56.6919 215.693 54 227L208 227L208 0L0 0z"/>
<path style="fill:#e2b124; stroke:none;" d="M98 2.42438C54.5377 8.20091 12.6026 25.8091 1.88812 73C-2.31544 91.5142 0 112.116 0 131L0 200C0 205.846 -2.68449 220.709 1.02778 225.397C3.36755 228.351 10.6845 227 14 227C25.8117 227 39.3049 228.834 50.9414 226.852C55.5122 226.073 54.9924 221.699 55 218L55 191L55 121C55 106.992 53.8178 91.9029 60.2701 79C72.4275 54.6882 98.3151 49 123 49C130.618 49 147.229 52.1273 153.682 47.821C156.73 45.7869 155.999 41.1517 156 38L156 13C155.999 9.84978 156.737 5.06631 153.682 3.02779C149.966 0.548172 142.285 2 138 2C124.894 2 110.997 0.69696 98 2.42438z"/>
<path style="fill:#ff0000; stroke:none;" d="M80 57L81 58L80 57z"/>
<path style="fill:#e2b124; stroke:none;" d="M94.3179 92.0278L92 101L92 127L94.3179 136.972L118 138L180 138L205.397 136.821L207 127L207 101L204.682 91.6034L180 91L120 91L94.3179 92.0278z"/>
<path style="fill:#000000; stroke:none;" d="M0 226L1 227L0 226z"/>
</svg>
