<svg id="Layer_1" data-name="Layer 1" xmlns="http://www.w3.org/2000/svg" width="125" height="125" viewBox="0 0 522.44 165.56"><defs><style>.cls-1{fill:#fff;}.cls-2{fill:#e8b30f;}.cls-3{fill:#793947;}</style></defs><path class="cls-1" d="M245.83,212.58a15.56,15.56,0,1,1-15.66-15.51A15.66,15.66,0,0,1,245.83,212.58Zm-23.28.16a7.7,7.7,0,0,0,7.86,7.68,7.74,7.74,0,1,0-.14-15.47A7.61,7.61,0,0,0,222.55,212.74Z" transform="translate(-16.76 -62.78)"/><path class="cls-1" d="M501.88,212.55a15.59,15.59,0,1,1-15.73-15.48A15.73,15.73,0,0,1,501.88,212.55Zm-7.9.16a7.61,7.61,0,0,0-7.73-7.76,7.74,7.74,0,0,0-.06,15.47A7.66,7.66,0,0,0,494,212.71Z" transform="translate(-16.76 -62.78)"/><path class="cls-1" d="M307.91,197.32V205h-9.59a7.24,7.24,0,0,0-2.64.07,12.57,12.57,0,0,0-2.59,1.95c.83.6,1.59,1.58,2.49,1.73,2,.34,4.08.09,6.09.38a9.19,9.19,0,0,1,8,7.73,9.74,9.74,0,0,1-8.87,11.31c-4.79.12-9.58,0-14.63,0v-7.76h11.05a7.47,7.47,0,0,0,2.64-.08,9.2,9.2,0,0,0,2.22-1.78c-.7-.64-1.31-1.69-2.11-1.86a24.14,24.14,0,0,0-4.51-.11c-5.94-.12-10.2-4.15-10.21-9.67s4-9.45,9.92-9.62C299.35,197.23,303.52,197.32,307.91,197.32Z" transform="translate(-16.76 -62.78)"/><path class="cls-1" d="M363.26,197.19H371c.05.93.13,1.87.14,2.8,0,4.7-.07,9.4.12,14.09.15,3.86,2.36,6.19,5.54,6.28s5.57-2.18,5.82-6c.29-4.42.16-8.86.2-13.29,0-1.23,0-2.45,0-3.84h7.32c0,6.94.63,13.89-.18,20.66-.79,6.58-7.55,10.92-14.08,10.34a13.47,13.47,0,0,1-12.56-12.91C363,209.39,363.26,203.44,363.26,197.19Z" transform="translate(-16.76 -62.78)"/><path class="cls-1" d="M260.55,205.19v22.93H253V197.45c10.43-1.5,16.88.63,20.83,7.22a13,13,0,0,1,2,5.69c.26,5.83.09,11.68.09,17.73h-7.55v-6.26c0-3.11.09-6.22-.06-9.32C268.06,208,265.12,205.19,260.55,205.19Z" transform="translate(-16.76 -62.78)"/><path class="cls-1" d="M524,228.09c0-5.16.06-10.19,0-15.22-.07-4.52-3-7.49-7.64-7.75,0,.92-.15,1.86-.15,2.79,0,6-.05,12.06,0,18.09,0,1.68-.43,2.46-2.24,2.32s-3.35,0-5.27,0V197.44c10.65-1.57,18.08.89,21.8,9.15a8.81,8.81,0,0,1,1,3.28c.09,6,0,12,0,18.22Z" transform="translate(-16.76 -62.78)"/><path class="cls-1" d="M416.91,218.09c1,1.25,2.07,2.47,3.12,3.67.51.6,1.06,1.17,1.59,1.73-4.67,6-14.63,6.4-21,.84a15.52,15.52,0,0,1-.86-22.54c5.88-6.14,16.2-6.2,21.82-.15l-5.16,5.25c-4.85-2.81-8.85-2.48-11.63,1a7.84,7.84,0,0,0,.21,9.83C407.88,221,411.73,221.28,416.91,218.09Z" transform="translate(-16.76 -62.78)"/><path class="cls-1" d="M205.17,218.46l5.19,5c-4.65,6-14.6,6.37-20.84,1a15.51,15.51,0,0,1-1.08-22.54,15.34,15.34,0,0,1,22.05-.18l-5.51,5c-4.86-2.61-8.73-2.27-11.41,1.15a7.76,7.76,0,0,0,.18,9.82C196.43,220.94,200.27,221.23,205.17,218.46Z" transform="translate(-16.76 -62.78)"/><path class="cls-1" d="M322.78,201h7.61v7.71h-7.15c-1.81,6.4,1.82,13.6,11,11.19v7.59c-4.41,2-10.73.3-14.88-4a13,13,0,0,1-4.1-8.72c-.17-8.32-.05-16.65-.05-25.41,2.13,0,4.22-.11,6.28.09.49,0,1.21,1.13,1.24,1.77C322.85,194.28,322.78,197.38,322.78,201Z" transform="translate(-16.76 -62.78)"/><path class="cls-1" d="M427.9,189.47h7.49V201c2.14,0,4,.06,5.93,0,1.49-.06,2.09.5,2,2-.1,1.83,0,3.67,0,5.74H436c-2.14,7.78,2.39,12.34,11,11.23v7.58c-8.41,3-18.51-3.7-19-13C427.55,206.33,427.9,198.06,427.9,189.47Z" transform="translate(-16.76 -62.78)"/><path class="cls-1" d="M356.49,204.58c-6.54,2.22-7.71,3.86-7.71,10.81v12.68h-7.32c0-6.42-.6-12.83.16-19.08.83-6.86,7.76-11.81,14.87-11.68Z" transform="translate(-16.76 -62.78)"/><path class="cls-1" d="M454.45,197.17h7.37v30.94h-7.37Z" transform="translate(-16.76 -62.78)"/><path class="cls-2" d="M17,174.72c0-15.93-.53-31.88.13-47.79C17.93,107.19,26.45,91,42.54,79.3,53,71.67,65.05,67.74,77.77,65.57c16-2.73,32.15-1.79,48.25-2,2.54,0,3.75,1.09,3.73,3.78-.07,8.67,0,17.34,0,26,0,2.93-.86,3.69-4.36,3.71-9,0-17.91-.07-26.86.07a48.45,48.45,0,0,0-24,6.59c-11.6,6.78-17.62,17-17.84,30.45-.17,10.09-.08,20.18-.08,30.27q0,29.13,0,58.27c0,3.52-.59,4.17-4.09,4.18q-16,0-31.95,0c-3.59,0-3.81-.83-3.81-4.47C16.76,205.75,16.8,174.72,17,174.72Z" transform="translate(-16.76 -62.78)"/><path class="cls-2" d="M125.74,161.82H88.42c-4.09,0-4.5-.46-4.49-4.53q0-12.17,0-24.32c0-3.8.83-4.56,4.7-4.56h74.65c3.34,0,3.83.48,3.83,4,0,8.68-.06,17.35.05,26,0,2.63-1,3.47-3.52,3.45C151,161.78,138.37,161.82,125.74,161.82Z" transform="translate(-16.76 -62.78)"/><path class="cls-3" d="M274.25,65c9.28.74,18.12,3.2,26,8.45a37.17,37.17,0,0,1,15.26,20.39,54.66,54.66,0,0,1,2.29,17.23c-.08,7.18.35,14.37-1,21.51-2.11,11.39-7.93,20.19-17.7,26.38-6.49,4.11-13.67,6.15-21.21,7.35-8.28,1.31-16.59,1-24.9,1.06-7.43,0-14.85,0-22.28,0-2.76,0-3.06-.34-3.06-3.08,0-5.12,0-10.23,0-15.34,0-2.51.2-2.73,2.75-2.74,11.65,0,23.29.05,34.94,0a30.37,30.37,0,0,0,17.33-5.15c5.48-3.74,9.15-8.85,9.57-15.54a123.06,123.06,0,0,0,0-19.58c-.85-9-6.56-14.72-14.73-18.07a33.88,33.88,0,0,0-13.07-2.37c-11.11,0-22.22,0-33.33,0-3.16,0-3.43-.3-3.41-3.47,0-4.93,0-9.87,0-14.8,0-2.37.37-2.85,2.77-2.86,6.83,0,13.67,0,20.5,0C250.93,64.28,266.51,64.38,274.25,65Z" transform="translate(-16.76 -62.78)"/><path class="cls-3" d="M393.12,167.58c-7.54-.21-15.09-.17-22.61-.68-7.79-.54-15.42-2.11-22.48-5.71-11.87-6.06-19.56-15.39-21.59-28.72-1.81-11.93-2-24,.47-35.83,2.31-11,8.9-19.28,18.74-24.84,9-5.07,18.82-6.82,28.94-7.26,6.29-.28,12.59-.15,18.89-.18,2.08,0,2.49.43,2.49,2.54q0,8,0,16c0,2.11-.45,2.56-2.65,2.57-5.41,0-10.82-.1-16.22,0a29.78,29.78,0,0,0-16.17,4.85c-6.12,4.1-9.67,9.76-9.95,17.17-.2,5.52-.28,11.07,0,16.58.51,9.46,5.83,15.7,14.22,19.44a32.79,32.79,0,0,0,13.72,2.65c11.23-.06,22.46,0,33.69,0,3,0,3,.07,3,3.08,0,5.11,0,10.22,0,15.33,0,2.35-.29,2.75-2.6,2.75h-20Z" transform="translate(-16.76 -62.78)"/><path class="cls-3" d="M459.51,78.4c0,3.45-.07,6.9,0,10.34.21,8.74,4.57,14.9,12.06,19,5.31,2.91,11.08,3.79,17,3.78a60,60,0,0,1,22.11,3.74c10.23,3.49,18.35,9.65,23.53,19.3a38.67,38.67,0,0,1,4.57,16.52c.23,4.69.24,9.39.35,14.08,0,1.59-.69,2.23-2.27,2.23q-10.35-.06-20.68,0c-1.71,0-2.32-.76-2.3-2.4,0-3.38.12-6.78-.11-10.16-.68-9.73-6-16.11-14.79-19.83-4.15-1.76-5.56-2.44-10.07-2.4a85.56,85.56,0,0,1-21.91-2.45c-13.93-3.54-24.54-11.17-30-24.9a38.74,38.74,0,0,1-2.64-13.41c-.23-8.43-.21-16.87-.3-25.31a1.86,1.86,0,0,1,2-2.14q10.61,0,21.21,0c1.56,0,2.17.88,2.15,2.42-.05,3.87,0,7.73,0,11.59Z" transform="translate(-16.76 -62.78)"/><path class="cls-3" d="M398.71,126.31H375c-2.32,0-2.51-.22-2.5-2.57,0-5.17,0-10.34,0-15.51,0-2.73.26-3,2.9-3q23.25,0,46.51,0c3,0,3.26.22,3.25,3.21,0,4.93,0,9.86,0,14.79,0,3-.05,3.06-3.12,3.06Z" transform="translate(-16.76 -62.78)"/><path class="cls-3" d="M184.35,131.1V97.76c0-2.35.45-2.82,2.82-2.82q9.89,0,19.78,0c2.53,0,2.81.57,2.81,3.06,0,22.23.17,44.43.18,66.65,0,2.31-.35,2.73-2.64,2.73q-10.06,0-20.14,0c-2.42,0-2.81-.41-2.81-2.78Z" transform="translate(-16.76 -62.78)"/><path class="cls-3" d="M209.76,86.2c0,1.85-.37,2.26-2.06,2.26H196.3c-3.27,0-6.53,0-9.8,0-1.53,0-2.2-.52-2.2-2.21,0-6.77-.13-13.54-.2-20.31,0-2.77.32-3.12,3-3.12l19.6,0c2.38,0,3,.55,3,2.91C209.74,69.19,209.76,82.88,209.76,86.2Z" transform="translate(-16.76 -62.78)"/><rect class="cls-3" x="167.59" y="11.03" width="25.41" height="25.41"/></svg>