<svg id="Layer_3" data-name="Layer 3" xmlns="http://www.w3.org/2000/svg" width="150" height="150" viewBox="0 0 528.19 185.34"><defs><style>.cls-1{fill:#fff;}.cls-2{fill:#e8b30f;}.cls-3{fill:#793947;}</style></defs><path class="cls-1" d="M262.13,245.85v-8.31c.93.18,1.73.36,2.53.48,5.32.76,9.71-2.75,9.86-8.14s.14-11,0-16.56a8.34,8.34,0,1,0-16.5,1.57c.89,4.76,5.61,7.46,10.73,6.15.35-.09.72-.13,1.57-.28a55.12,55.12,0,0,1-.13,7.43c-.09.67-1.72,1.49-2.71,1.6a16.64,16.64,0,0,1-11.91-29.48c5.32-4.21,11.27-5.06,17.43-2.29s9.5,7.62,9.74,14.3c.23,6.28.3,12.58,0,18.85C282.16,241.47,271.74,248.87,262.13,245.85Z" transform="translate(-15.91 -61.19)"/><path class="cls-1" d="M377.36,184h8.23a15.61,15.61,0,0,1,.23,2c0,9,.07,18.08,0,27.12a16.76,16.76,0,0,1-14.38,16.64,16.56,16.56,0,0,1-18.18-11.48c-2.05-6.26-.61-11.92,3.88-16.61,4.32-4.53,9.72-6,16-4.58v8.5c-.77-.17-1.46-.33-2.16-.47a8.31,8.31,0,1,0-2.77,16.36,8.1,8.1,0,0,0,9.1-8c.13-8.66.05-17.32.06-26Z" transform="translate(-15.91 -61.19)"/><path class="cls-1" d="M332.87,229.24a16.49,16.49,0,0,1-20.07-11.73c-2.28-9.27,3.09-18.38,12.08-20.5a16.53,16.53,0,0,1,20.62,15.56c.19,5.66,0,11.34,0,17.18H337.3c0-5.43,0-10.72,0-16,0-4.41-2.61-7.75-6.47-8.63a8.29,8.29,0,0,0-8.94,12.51,8.46,8.46,0,0,0,8.62,3.75c.72-.13,1.42-.36,2.38-.62Z" transform="translate(-15.91 -61.19)"/><path class="cls-1" d="M476.26,229.77h-7.95c0-4.18,0-8.24,0-12.29,0-1.61.07-3.24-.08-4.84a8.32,8.32,0,1,0-5.94,8.48l1.56-.38v8.57a15.47,15.47,0,0,1-14.06-2.92,16.64,16.64,0,0,1,13.67-29.48,16.4,16.4,0,0,1,13.07,16.17c.06,5.23,0,10.46,0,15.69A5.47,5.47,0,0,1,476.26,229.77Z" transform="translate(-15.91 -61.19)"/><path class="cls-1" d="M402.38,205.22v24.54h-8.13V196.52c6.14-.1,12.26-.89,17.64,2.95,4.37,3.12,6.94,7.32,7.07,12.73.13,5.78,0,11.57,0,17.53h-8.21c0-4.82,0-9.54,0-14.26a20.7,20.7,0,0,0-.39-4.53A7.47,7.47,0,0,0,402.38,205.22Z" transform="translate(-15.91 -61.19)"/><path class="cls-1" d="M418.85,246.49v-8c7.08-2.17,8.43-4,8.44-11.44V196.66h7.95a10.38,10.38,0,0,1,.29,1.77c0,10.56.11,21.11,0,31.66-.12,8.64-6,15.1-14.55,16.39A16,16,0,0,1,418.85,246.49Z" transform="translate(-15.91 -61.19)"/><path class="cls-1" d="M290.56,229.76c0-6.36-.33-12.46.08-18.5a16,16,0,0,1,16.3-14.53v7.82c-6.72,2.1-8.1,4-8.11,11.18v14Z" transform="translate(-15.91 -61.19)"/><path class="cls-1" d="M443.91,192a4.64,4.64,0,0,1-4.4,4.67,4.57,4.57,0,0,1-4.72-4.62,4.52,4.52,0,0,1,4.53-4.51A4.62,4.62,0,0,1,443.91,192Z" transform="translate(-15.91 -61.19)"/><path class="cls-2" d="M16.13,173.38c0-16.08-.53-32.18.13-48.24.83-19.92,9.43-36.25,25.67-48.08C52.51,69.36,64.65,65.39,77.5,63.2c16.16-2.75,32.44-1.81,48.69-2,2.57,0,3.8,1.11,3.77,3.81-.07,8.76,0,17.52,0,26.27,0,3-.87,3.73-4.4,3.74-9,0-18.08-.06-27.11.08a48.91,48.91,0,0,0-24.24,6.65c-11.7,6.84-17.78,17.17-18,30.74-.17,10.18-.07,20.37-.07,30.55q0,29.42,0,58.82c0,3.56-.59,4.21-4.12,4.22q-16.12,0-32.26,0c-3.62,0-3.84-.85-3.84-4.51C15.91,204.71,16,173.38,16.13,173.38Z" transform="translate(-15.91 -61.19)"/><path class="cls-2" d="M125.92,160.36H88.24c-4.13,0-4.54-.46-4.53-4.57,0-8.19,0-16.37,0-24.56,0-3.83.83-4.6,4.74-4.6H163.8c3.37,0,3.87.47,3.87,4,0,8.76-.07,17.52,0,26.27,0,2.65-1,3.5-3.55,3.48C151.42,160.31,138.67,160.36,125.92,160.36Z" transform="translate(-15.91 -61.19)"/><path class="cls-3" d="M276.65,63.81c9.37.75,18.3,3.23,26.24,8.54A37.51,37.51,0,0,1,318.3,92.92a55.48,55.48,0,0,1,2.31,17.4c-.08,7.24.35,14.5-1,21.71-2.13,11.5-8,20.38-17.86,26.63-6.55,4.15-13.8,6.21-21.41,7.42-8.36,1.32-16.75,1-25.14,1.06-7.5,0-15,0-22.49,0-2.79,0-3.09-.33-3.08-3.11,0-5.16,0-10.32,0-15.48,0-2.53.2-2.75,2.78-2.76,11.75,0,23.51,0,35.27,0a30.69,30.69,0,0,0,17.49-5.2c5.53-3.78,9.24-8.94,9.67-15.69a126.55,126.55,0,0,0-.06-19.76c-.86-9.14-6.63-14.86-14.87-18.24a34.09,34.09,0,0,0-13.19-2.4c-11.21,0-22.43,0-33.65,0-3.19,0-3.46-.31-3.44-3.51,0-5,0-10,0-14.94,0-2.39.38-2.87,2.8-2.88,6.89,0,13.79,0,20.69,0C253.11,63.08,268.84,63.18,276.65,63.81Z" transform="translate(-15.91 -61.19)"/><path class="cls-3" d="M396.65,167.35c-7.61-.21-15.24-.17-22.83-.69-7.87-.54-15.57-2.13-22.69-5.76-12-6.12-19.75-15.54-21.79-29-1.83-12-2-24.22.46-36.16,2.34-11.11,9-19.46,18.92-25.07,9.06-5.12,19-6.89,29.22-7.34,6.34-.27,12.71-.14,19.07-.17,2.09,0,2.5.43,2.51,2.56,0,5.4,0,10.8,0,16.2,0,2.13-.46,2.59-2.68,2.59-5.46,0-10.92-.09-16.37,0a30,30,0,0,0-16.32,4.89c-6.18,4.14-9.77,9.85-10,17.34-.21,5.57-.29,11.17,0,16.73.52,9.55,5.89,15.85,14.36,19.63a33.22,33.22,0,0,0,13.85,2.67c11.33-.06,22.67,0,34,0,3,0,3.07.08,3.06,3.12q0,7.74,0,15.48c0,2.36-.3,2.76-2.63,2.77H396.65Z" transform="translate(-15.91 -61.19)"/><path class="cls-3" d="M463.66,77.33c0,3.48-.07,7,0,10.44.22,8.82,4.62,15,12.18,19.2,5.36,2.94,11.18,3.82,17.2,3.81a60.43,60.43,0,0,1,22.32,3.78c10.32,3.51,18.52,9.73,23.75,19.47a39.17,39.17,0,0,1,4.62,16.69c.23,4.73.23,9.47.35,14.21,0,1.6-.7,2.25-2.3,2.24q-10.42,0-20.87,0c-1.72,0-2.34-.77-2.32-2.42,0-3.42.13-6.85-.11-10.26-.69-9.82-6.08-16.26-14.93-20-4.19-1.78-5.61-2.47-10.16-2.43a86.69,86.69,0,0,1-22.12-2.47C457.22,126,446.51,118.31,441,104.45a39.24,39.24,0,0,1-2.66-13.53c-.23-8.52-.21-17-.3-25.56a1.87,1.87,0,0,1,2.07-2.15c7.13,0,14.27,0,21.41,0,1.57,0,2.18.89,2.16,2.44,0,3.9,0,7.8,0,11.7Z" transform="translate(-15.91 -61.19)"/><path class="cls-3" d="M402.29,125.69H378.36c-2.34,0-2.53-.22-2.52-2.6,0-5.21,0-10.43,0-15.65,0-2.76.26-3,2.92-3h46.95c3.07,0,3.29.22,3.28,3.24q0,7.47,0,14.93c0,3,0,3.09-3.14,3.09Z" transform="translate(-15.91 -61.19)"/><path class="cls-3" d="M185.9,130.52V96.87c0-2.37.46-2.84,2.85-2.85q10,0,20,0c2.56,0,2.84.58,2.84,3.1,0,22.43.18,44.84.19,67.27,0,2.33-.36,2.76-2.67,2.76H188.74c-2.44,0-2.84-.42-2.84-2.81Q185.92,147.43,185.9,130.52Z" transform="translate(-15.91 -61.19)"/><path class="cls-3" d="M211.55,85.2c0,1.87-.37,2.28-2.07,2.28H198c-3.29,0-6.59,0-9.89,0-1.54,0-2.22-.53-2.22-2.24,0-6.83-.13-13.67-.2-20.5,0-2.8.32-3.15,3-3.15l19.78,0c2.41,0,3,.56,3,2.94C211.53,68,211.55,81.85,211.55,85.2Z" transform="translate(-15.91 -61.19)"/><rect class="cls-3" x="169.99" y="11.5" width="25.65" height="25.65"/></svg>