<svg id="Layer_1" data-name="Layer 1" xmlns="http://www.w3.org/2000/svg" viewBox="0 0 522.44 165.56"><defs><style>.cls-1{fill:#fff;}.cls-2{fill:#e3b100;}.cls-3{fill:#753947;}</style></defs><path class="cls-1" d="M247.85,211a15.56,15.56,0,1,1-15.66-15.5A15.64,15.64,0,0,1,247.85,211Zm-23.28.17a7.7,7.7,0,0,0,7.86,7.68,7.74,7.74,0,1,0-.14-15.47A7.62,7.62,0,0,0,224.57,211.18Z" transform="translate(-18.78 -61.22)"/><path class="cls-1" d="M503.9,211a15.59,15.59,0,1,1-15.72-15.48A15.71,15.71,0,0,1,503.9,211Zm-7.9.15a7.59,7.59,0,0,0-7.73-7.75,7.76,7.76,0,0,0-7.74,7.56,7.85,7.85,0,0,0,7.68,7.91A7.65,7.65,0,0,0,496,211.14Z" transform="translate(-18.78 -61.22)"/><path class="cls-1" d="M309.94,195.76v7.68h-9.6a7.24,7.24,0,0,0-2.64.07,13.13,13.13,0,0,0-2.59,2c.83.61,1.59,1.59,2.49,1.74,2,.33,4.09.09,6.1.37a9.22,9.22,0,0,1,8,7.74,9.73,9.73,0,0,1-8.88,11.3c-4.79.13-9.58,0-14.63,0v-7.75h11a7.47,7.47,0,0,0,2.64-.08,9.44,9.44,0,0,0,2.22-1.78c-.69-.65-1.3-1.69-2.1-1.86a23.34,23.34,0,0,0-4.51-.11c-5.95-.12-10.21-4.15-10.22-9.67s4-9.45,9.92-9.63C301.38,195.66,305.54,195.76,309.94,195.76Z" transform="translate(-18.78 -61.22)"/><path class="cls-1" d="M365.28,195.62H373c0,.94.12,1.87.13,2.8,0,4.7-.06,9.41.12,14.1.15,3.86,2.37,6.18,5.54,6.28s5.57-2.19,5.82-6c.29-4.41.16-8.85.2-13.29,0-1.22,0-2.44,0-3.83h7.31c0,6.94.63,13.88-.18,20.65-.78,6.58-7.54,10.93-14.07,10.34a13.47,13.47,0,0,1-12.57-12.9C365.05,207.82,365.28,201.88,365.28,195.62Z" transform="translate(-18.78 -61.22)"/><path class="cls-1" d="M262.57,203.63v22.92H255V195.89c10.43-1.5,16.88.63,20.83,7.22a12.76,12.76,0,0,1,2,5.68c.26,5.84.1,11.69.1,17.74h-7.56v-6.26c0-3.11.1-6.22-.06-9.32C270.08,206.44,267.14,203.63,262.57,203.63Z" transform="translate(-18.78 -61.22)"/><path class="cls-1" d="M526.06,226.53c0-5.16.06-10.19,0-15.22-.07-4.53-3-7.49-7.63-7.75-.06.92-.16,1.85-.16,2.78,0,6,0,12.07,0,18.1,0,1.67-.43,2.46-2.24,2.32s-3.35,0-5.27,0V195.88c10.65-1.57,18.09.89,21.81,9.15a8.74,8.74,0,0,1,1,3.28c.1,6,.05,12,.05,18.22Z" transform="translate(-18.78 -61.22)"/><path class="cls-1" d="M418.93,216.53c1.05,1.24,2.08,2.47,3.12,3.67.51.6,1.07,1.16,1.59,1.73-4.67,6-14.62,6.39-21,.84a15.53,15.53,0,0,1-.86-22.54c5.88-6.14,16.2-6.2,21.82-.15l-5.16,5.24c-4.84-2.81-8.84-2.47-11.63,1a7.84,7.84,0,0,0,.21,9.83C409.9,219.45,413.75,219.71,418.93,216.53Z" transform="translate(-18.78 -61.22)"/><path class="cls-1" d="M207.2,216.9l5.18,5c-4.65,6-14.6,6.37-20.84,1a15.51,15.51,0,0,1-1.08-22.54,15.34,15.34,0,0,1,22-.19l-5.51,5c-4.86-2.61-8.73-2.28-11.41,1.15a7.77,7.77,0,0,0,.18,9.82C198.45,219.38,202.3,219.67,207.2,216.9Z" transform="translate(-18.78 -61.22)"/><path class="cls-1" d="M324.8,199.4h7.61v7.71h-7.15c-1.81,6.4,1.82,13.6,11,11.19v7.58c-4.41,2-10.72.3-14.87-4a12.94,12.94,0,0,1-4.1-8.73c-.18-8.32-.06-16.64-.06-25.4,2.13,0,4.22-.11,6.29.08.48.05,1.2,1.14,1.23,1.78C324.87,192.72,324.8,195.82,324.8,199.4Z" transform="translate(-18.78 -61.22)"/><path class="cls-1" d="M429.92,187.91h7.49v11.5c2.14,0,4,.06,5.94,0,1.48-.06,2.08.5,2,2-.09,1.84,0,3.68,0,5.75H438c-2.14,7.78,2.39,12.34,11,11.23V226c-8.4,3-18.51-3.71-19-13C429.57,204.77,429.92,196.5,429.92,187.91Z" transform="translate(-18.78 -61.22)"/><path class="cls-1" d="M358.51,203c-6.53,2.22-7.7,3.86-7.7,10.81v12.68h-7.33c0-6.42-.6-12.84.16-19.08.83-6.86,7.77-11.82,14.87-11.68Z" transform="translate(-18.78 -61.22)"/><path class="cls-1" d="M456.47,195.61h7.37v30.94h-7.37Z" transform="translate(-18.78 -61.22)"/><path class="cls-1" d="M467.48,195.76a4.3,4.3,0,0,1-4.12-4.35,4.25,4.25,0,0,1,4.53-4.17,4.32,4.32,0,0,1,4,4.45A4.38,4.38,0,0,1,467.48,195.76Z" transform="translate(-18.78 -61.22)"/><path class="cls-2" d="M19,173.15c0-15.93-.52-31.88.13-47.78.82-19.74,9.34-35.92,25.44-47.63C55.05,70.11,67.07,66.18,79.8,64c16-2.73,32.14-1.79,48.24-2,2.54,0,3.76,1.1,3.73,3.78-.07,8.68,0,17.35,0,26,0,2.94-.86,3.69-4.36,3.71-9,0-17.91-.06-26.86.08a48.57,48.57,0,0,0-24,6.58c-11.59,6.79-17.61,17-17.84,30.46-.17,10.09-.07,20.18-.07,30.27q0,29.13,0,58.27c0,3.52-.59,4.17-4.08,4.18q-16,0-32,0c-3.59,0-3.81-.84-3.81-4.47C18.78,204.19,18.82,173.15,19,173.15Z" transform="translate(-18.78 -61.22)"/><path class="cls-2" d="M127.77,160.25H90.44c-4.09,0-4.5-.46-4.49-4.53,0-8.11,0-16.22,0-24.33,0-3.79.82-4.56,4.69-4.56q37.32,0,74.65,0c3.35,0,3.83.47,3.84,4,0,8.67-.07,17.35,0,26,0,2.63-1,3.46-3.51,3.45C153,160.21,140.4,160.25,127.77,160.25Z" transform="translate(-18.78 -61.22)"/><path class="cls-3" d="M276.28,63.44c9.27.75,18.12,3.21,26,8.46a37.25,37.25,0,0,1,15.27,20.38,54.75,54.75,0,0,1,2.28,17.24c-.08,7.18.35,14.36-1,21.51-2.11,11.39-7.93,20.19-17.69,26.37-6.49,4.12-13.68,6.16-21.22,7.35-8.27,1.32-16.58,1-24.9,1.06-7.42,0-14.85,0-22.28,0-2.76,0-3.06-.33-3.05-3.08,0-5.11,0-10.22,0-15.33,0-2.51.2-2.74,2.75-2.74,11.65,0,23.3,0,34.94,0a30.29,30.29,0,0,0,17.33-5.14c5.48-3.75,9.15-8.86,9.58-15.54a125.47,125.47,0,0,0-.05-19.58c-.86-9-6.57-14.73-14.74-18.07a33.64,33.64,0,0,0-13.06-2.37c-11.11,0-22.23,0-33.34,0-3.16,0-3.43-.31-3.41-3.47,0-4.94,0-9.87,0-14.8,0-2.37.37-2.85,2.76-2.86,6.83,0,13.67,0,20.5,0C253,62.72,268.53,62.82,276.28,63.44Z" transform="translate(-18.78 -61.22)"/><path class="cls-3" d="M395.15,166c-7.54-.2-15.1-.16-22.62-.68-7.79-.53-15.42-2.1-22.48-5.71-11.87-6.05-19.56-15.39-21.58-28.72-1.81-11.93-2-24,.46-35.82,2.32-11,8.9-19.28,18.74-24.84,9-5.07,18.83-6.83,28.94-7.27,6.29-.27,12.6-.14,18.89-.17,2.08,0,2.49.42,2.49,2.53q0,8,0,16c0,2.12-.46,2.57-2.66,2.57-5.4,0-10.81-.09-16.22,0A29.63,29.63,0,0,0,363,88.84C356.83,93,353.28,98.6,353,106c-.21,5.52-.29,11.07,0,16.58.52,9.46,5.83,15.7,14.23,19.44A32.87,32.87,0,0,0,381,144.69c11.23-.06,22.46,0,33.7,0,3,0,3,.08,3,3.09q0,7.67,0,15.33c0,2.34-.3,2.74-2.61,2.75h-20Z" transform="translate(-18.78 -61.22)"/><path class="cls-3" d="M461.53,76.84c0,3.45-.07,6.9,0,10.34.21,8.74,4.57,14.9,12.07,19,5.3,2.91,11.07,3.79,17,3.78a59.71,59.71,0,0,1,22.11,3.74c10.23,3.48,18.35,9.64,23.53,19.29a38.61,38.61,0,0,1,4.57,16.53c.24,4.69.24,9.39.36,14.08,0,1.58-.7,2.23-2.28,2.22q-10.34,0-20.68,0c-1.7,0-2.31-.76-2.3-2.39,0-3.39.13-6.79-.11-10.16-.68-9.73-6-16.11-14.79-19.83-4.15-1.76-5.55-2.44-10.06-2.41a85.94,85.94,0,0,1-21.91-2.44c-13.94-3.55-24.55-11.17-30-24.9a38.78,38.78,0,0,1-2.63-13.41c-.23-8.44-.21-16.88-.3-25.32a1.84,1.84,0,0,1,2-2.13c7.07,0,14.14,0,21.22,0,1.55,0,2.16.88,2.14,2.42,0,3.86,0,7.73,0,11.59Z" transform="translate(-18.78 -61.22)"/><path class="cls-3" d="M400.73,124.75H377c-2.31,0-2.5-.22-2.5-2.58,0-5.16,0-10.33,0-15.5,0-2.73.26-3,2.9-3h46.51c3,0,3.26.21,3.25,3.2q0,7.39,0,14.8c0,3,0,3.06-3.11,3.06Z" transform="translate(-18.78 -61.22)"/><path class="cls-3" d="M186.37,129.53V96.2c0-2.35.46-2.82,2.82-2.83q9.88,0,19.78,0c2.53,0,2.81.58,2.81,3.07,0,22.22.18,44.42.18,66.65,0,2.3-.34,2.72-2.64,2.73H189.18c-2.41,0-2.81-.42-2.81-2.79Q186.39,146.29,186.37,129.53Z" transform="translate(-18.78 -61.22)"/><path class="cls-3" d="M211.79,84.63c0,1.86-.38,2.27-2.07,2.27h-11.4c-3.26,0-6.53,0-9.8,0-1.53,0-2.2-.52-2.2-2.21,0-6.77-.12-13.55-.2-20.32,0-2.76.32-3.11,3-3.12l19.6,0c2.39,0,3,.55,3,2.9C211.76,67.63,211.79,81.31,211.79,84.63Z" transform="translate(-18.78 -61.22)"/><rect class="cls-3" x="167.59" y="11.03" width="25.41" height="25.41"/></svg>